HIERARCHY
ROOT hip
{
  OFFSET 0 0 0
  CHANNELS 6 Xposition Yposition Zposition Zrotation Yrotation Xrotation
  JOINT abdomen
  {
    OFFSET 0 20.6881 -0.73152
    CHANNELS 3 Zrotation Xrotation Yrotation
    JOINT chest
    {
      OFFSET 0 11.7043 -0.48768
      CHANNELS 3 Zrotation Xrotation Yrotation
      JOINT neck
      {
        OFFSET 0 22.1894 -2.19456
        CHANNELS 3 Zrotation Xrotation Yrotation
        JOINT head
        {
          OFFSET -0.24384 7.07133 1.2192
          CHANNELS 3 Zrotation Xrotation Yrotation
          JOINT leftEye
          {
            OFFSET 4.14528 8.04674 8.04672
            CHANNELS 3 Zrotation Xrotation Yrotation
            End Site
            {
              OFFSET 1 0 0
            }
          }
          JOINT rightEye
          {
            OFFSET -3.6576 8.04674 8.04672
            CHANNELS 3 Zrotation Xrotation Yrotation
            End Site
            {
              OFFSET 1 0 0
            }
          }
        }
      }
      JOINT rCollar
      {
        OFFSET -2.68224 19.2634 -4.8768
        CHANNELS 3 Zrotation Xrotation Yrotation
        JOINT rShldr
        {
          OFFSET -8.77824 -1.95073 1.46304
          CHANNELS 3 Zrotation Xrotation Yrotation
          JOINT rForeArm
          {
            OFFSET -28.1742 -1.7115 0.48768
            CHANNELS 3 Zrotation Xrotation Yrotation
            JOINT rHand
            {
              OFFSET -22.5879 0.773209 7.07136
              CHANNELS 3 Zrotation Xrotation Yrotation
              JOINT rThumb1
              {
                OFFSET -1.2192 -0.487915 3.41376
                CHANNELS 3 Zrotation Xrotation Yrotation
                JOINT rThumb2
                {
                  OFFSET -3.37035 -0.52449 3.41376
                  CHANNELS 3 Zrotation Xrotation Yrotation
                  End Site
                  {
                    OFFSET -1.78271 -1.18214 1.43049
                  }
                }
              }
              JOINT rIndex1
              {
                OFFSET -7.75947 0.938293 5.60832
                CHANNELS 3 Zrotation Xrotation Yrotation
                JOINT rIndex2
                {
                  OFFSET -2.54057 -0.884171 1.56538
                  CHANNELS 3 Zrotation Xrotation Yrotation
                  End Site
                  {
                    OFFSET -1.62519 -0.234802 1.16502
                  }
                }
              }
              JOINT rMid1
              {
                OFFSET -8.24714 1.18213 3.41376
                CHANNELS 3 Zrotation Xrotation Yrotation
                JOINT rMid2
                {
                  OFFSET -3.10165 -0.590103 1.0647
                  CHANNELS 3 Zrotation Xrotation Yrotation
                  End Site
                  {
                    OFFSET -2.48547 -0.328903 0.83742
                  }
                }
              }
              JOINT rRing1
              {
                OFFSET -8.82822 0.546677 1.51678
                CHANNELS 3 Zrotation Xrotation Yrotation
                JOINT rRing2
                {
                  OFFSET -2.60934 -0.819778 -0.0198488
                  CHANNELS 3 Zrotation Xrotation Yrotation
                  End Site
                  {
                    OFFSET -2.33842 -0.294052 0.168128
                  }
                }
              }
              JOINT rPinky1
              {
                OFFSET -8.27202 -0.0477905 -0.4584
                CHANNELS 3 Zrotation Xrotation Yrotation
                JOINT rPinky2
                {
                  OFFSET -1.82734 -0.647385 -0.700984
                  CHANNELS 3 Zrotation Xrotation Yrotation
                  End Site
                  {
                    OFFSET -1.69225 -0.51767 -0.607171
                  }
                }
              }
            }
          }
        }
      }
      JOINT lCollar
      {
        OFFSET 2.68224 19.2634 -4.8768
        CHANNELS 3 Zrotation Xrotation Yrotation
        JOINT lShldr
        {
          OFFSET 8.77824 -1.95073 1.46304
          CHANNELS 3 Zrotation Xrotation Yrotation
          JOINT lForeArm
          {
            OFFSET 28.1742 -1.7115 0.48768
            CHANNELS 3 Zrotation Xrotation Yrotation
            JOINT lHand
            {
              OFFSET 22.5879 0.773209 7.07136
              CHANNELS 3 Zrotation Xrotation Yrotation
              JOINT lThumb1
              {
                OFFSET 1.2192 -0.487915 3.41376
                CHANNELS 3 Zrotation Xrotation Yrotation
                JOINT lThumb2
                {
                  OFFSET 3.37035 -0.52449 3.41376
                  CHANNELS 3 Zrotation Xrotation Yrotation
                  End Site
                  {
                    OFFSET 1.78271 -1.18214 1.43049
                  }
                }
              }
              JOINT lIndex1
              {
                OFFSET 7.75947 0.938293 5.60832
                CHANNELS 3 Zrotation Xrotation Yrotation
                JOINT lIndex2
                {
                  OFFSET 2.54057 -0.884171 1.56538
                  CHANNELS 3 Zrotation Xrotation Yrotation
                  End Site
                  {
                    OFFSET 1.62519 -0.234802 1.16502
                  }
                }
              }
              JOINT lMid1
              {
                OFFSET 8.24714 1.18213 3.41376
                CHANNELS 3 Zrotation Xrotation Yrotation
                JOINT lMid2
                {
                  OFFSET 3.10165 -0.590103 1.0647
                  CHANNELS 3 Zrotation Xrotation Yrotation
                  End Site
                  {
                    OFFSET 2.48547 -0.328903 0.83742
                  }
                }
              }
              JOINT lRing1
              {
                OFFSET 8.82822 0.546677 1.51678
                CHANNELS 3 Zrotation Xrotation Yrotation
                JOINT lRing2
                {
                  OFFSET 2.60934 -0.819778 -0.0198488
                  CHANNELS 3 Zrotation Xrotation Yrotation
                  End Site
                  {
                    OFFSET 2.33842 -0.294052 0.168128
                  }
                }
              }
              JOINT lPinky1
              {
                OFFSET 8.27202 -0.0477905 -0.4584
                CHANNELS 3 Zrotation Xrotation Yrotation
                JOINT lPinky2
                {
                  OFFSET 1.82734 -0.647385 -0.700984
                  CHANNELS 3 Zrotation Xrotation Yrotation
                  End Site
                  {
                    OFFSET 1.69225 -0.51767 -0.607171
                  }
                }
              }
            }
          }
        }
      }
    }
  }
  JOINT rButtock
  {
    OFFSET -8.77824 4.35084 1.2192
    CHANNELS 3 Zrotation Xrotation Yrotation
    JOINT rThigh
    {
      OFFSET 0 -1.70687 -2.19456
      CHANNELS 3 Zrotation Xrotation Yrotation
      JOINT rShin
      {
        OFFSET 0 -36.8199 0.73152
        CHANNELS 3 Zrotation Xrotation Yrotation
        JOINT rFoot
        {
          OFFSET 0.73152 -45.1104 -5.12064
          CHANNELS 3 Zrotation Xrotation Yrotation
          End Site
          {
            OFFSET -1.1221 -3.69964 12.103
          }
        }
      }
    }
  }
  JOINT lButtock
  {
    OFFSET 8.77824 4.35084 1.2192
    CHANNELS 3 Zrotation Xrotation Yrotation
    JOINT lThigh
    {
      OFFSET 0 -1.70687 -2.19456
      CHANNELS 3 Zrotation Xrotation Yrotation
      JOINT lShin
      {
        OFFSET 0 -36.8199 0.73152
        CHANNELS 3 Zrotation Xrotation Yrotation
        JOINT lFoot
        {
          OFFSET -0.73152 -45.1104 -5.12064
          CHANNELS 3 Zrotation Xrotation Yrotation
          End Site
          {
            OFFSET 1.1221 -3.69964 12.103
          }
        }
      }
    }
  }
}
MOTION
Frames:	4
Frame Time:	0.00833333
-214.311 83.282 -31.9087 0.0 0.0 0.0 -2.96289 0.00183613 -0.079916 -0.816458 0.016909 -0.141253 6.11279e-14 1.59028e-15 7.45443e-16 1.85179e-13 1.59028e-14 2.23167e-15 -0.0 0.0 0.0 -0.0 0.0 0.0 3.08121e-14 1.40935e-16 3.97569e-16 6.48944e-13 3.14949e-15 1.07344e-14 1.11194e-11 -3.24397e-12 5.725e-14 1.27454e-10 3.85878e-12 1.64435e-12 3.00598e-10 1.32787e-12 3.67036e-12 5.19112e-10 2.29e-12 6.30386e-12 3.00601e-10 1.32748e-12 3.6481e-12 7.73091 5.47488 0.417314 3.00597e-10 1.32719e-12 3.664e-12 2.90554 0.965183 0.102902 3.00601e-10 1.32738e-12 3.65446e-12 10.2786 0.731801 0.0259123 3.00594e-10 1.33066e-12 3.65128e-12 2.22167 -0.733487 -0.20892 3.06143e-14 1.43265e-16 1.98785e-16 6.45126e-13 2.76435e-15 8.54774e-15 1.11517e-11 3.42605e-12 2.54444e-14 1.27427e-10 -2.82644e-12 1.68251e-12 3.00614e-10 1.30253e-12 3.6481e-12 5.19156e-10 2.25183e-12 6.30783e-12 3.00609e-10 1.30244e-12 3.65128e-12 -7.73091 5.47488 -0.417314 3.00614e-10 1.30184e-12 3.6481e-12 -2.90554 0.965183 -0.102902 3.00604e-10 1.30244e-12 3.65764e-12 -10.2786 0.731801 -0.0259123 3.00622e-10 1.30721e-12 3.66082e-12 -2.22167 -0.733487 0.20892 -2.03217e-16 0.0 -3.88251e-19 -1.77228 -1.93398 0.0122161 -0.00866824 -2.07864 -0.0712431 -0.477603 3.99977 0.135252 2.03217e-16 0.0 3.88251e-19 -2.72813 -9.04332 0.303206 -0.00826971 10.7977 -0.21493 0.537952 -1.76714 -0.0241541
-208.971 82.2042 -37.2159 -66.4404 85.839 -65.8248 -2.42468 0.180332 -0.176914 -1.09916 0.777942 -0.192182 1.08436 1.96486 0.182655 0.42485 -4.97038 0.288733 -0.0 0.0 0.0 -0.0 0.0 0.0 5.39855e-14 1.21491e-13 3.11339e-14 22.3762 6.13066 0.507069 -4.63854 -2.19819 7.14403 0.000135273 0.25993 0.0365295 2.11717e-11 -1.27684e-12 -9.78902e-10 3.35107e-11 -1.93017e-12 -1.69241e-09 2.11738e-11 -1.27689e-12 -9.78918e-10 7.73091 5.47488 0.417314 2.11674e-11 -1.27918e-12 -9.789e-10 2.90554 0.965183 0.102902 2.11748e-11 -1.27636e-12 -9.78912e-10 10.2786 0.731801 0.0259123 2.11683e-11 -1.27295e-12 -9.78914e-10 2.22167 -0.733487 -0.20892 5.38106e-14 1.21492e-13 3.09351e-14 -22.1772 5.066 -0.193028 2.91359 -1.13988 -4.73103 -0.00598876 -1.71796 0.241052 -2.56986e-10 6.94201e-11 1.49106e-09 -4.4871e-10 1.20826e-10 2.57573e-09 -2.5699e-10 6.94208e-11 1.49106e-09 -7.73091 5.47488 -0.417314 -2.56985e-10 6.942e-11 1.49106e-09 -2.90554 0.965183 -0.102902 -2.56995e-10 6.94206e-11 1.49107e-09 -10.2786 0.731801 -0.0259123 -2.5698e-10 6.94243e-11 1.49107e-09 -2.22167 -0.733487 0.20892 -2.03217e-16 0.0 -3.88251e-19 -1.27531 -4.82793 1.29706 0.0410932 7.45761 0.139593 -0.97849 -2.87753 -3.52893 2.03217e-16 0.0 3.88251e-19 -1.6691 -8.84692 2.45987 -0.0354392 15.6384 -0.289581 1.28095 -7.10693 5.39764
-208.972 82.2025 -37.256 -67.6099 85.9054 -66.9949 -1.85666 0.368798 -0.28048 -1.39639 1.58244 -0.246377 2.2136 4.04504 0.377116 0.932557 -10.2271 0.603872 -0.0 0.0 0.0 -0.0 0.0 0.0 7.89145e-14 2.65714e-13 6.4984e-14 45.9093 12.6153 1.0629 -8.95393 -4.41026 14.7342 -8.24436e-05 0.531056 0.074635 -2.74148e-10 -5.73067e-12 -2.06404e-09 -4.79854e-10 -9.30412e-12 -3.56847e-09 -2.74147e-10 -5.73049e-12 -2.06405e-09 7.73091 5.47488 0.417314 -2.74156e-10 -5.73484e-12 -2.06403e-09 2.90554 0.965183 0.102902 -2.74144e-10 -5.72914e-12 -2.06405e-09 10.2786 0.731801 0.0259123 -2.74151e-10 -5.72554e-12 -2.06405e-09 2.22167 -0.733487 -0.20892 7.87642e-14 2.65715e-13 6.47852e-14 -45.5848 10.4167 -0.402106 5.78671 -2.31727 -9.73347 0.00341671 -3.52645 0.495543 -8.61462e-10 1.46394e-10 3.14216e-09 -1.49808e-09 2.54816e-10 5.42794e-09 -8.61466e-10 1.46396e-10 3.14216e-09 -7.73091 5.47488 -0.417314 -8.61462e-10 1.46395e-10 3.14216e-09 -2.90554 0.965183 -0.102902 -8.6147e-10 1.46395e-10 3.14217e-09 -10.2786 0.731801 -0.0259123 -8.61458e-10 1.46398e-10 3.14217e-09 -2.22167 -0.733487 0.20892 -2.03217e-16 0.0 -3.88251e-19 -0.607275 -7.87958 2.67145 0.0144297 17.5338 0.377444 -2.47264 -10.0687 -7.50698 2.03217e-16 0.0 3.88251e-19 -0.565502 -8.623 4.73798 -0.0494409 20.7515 -0.37474 3.18345 -12.5706 11.3241
-208.956 82.1997 -37.2942 -69.0691 85.9232 -68.4417 -1.34642 0.537314 -0.370924 -1.6605 2.29999 -0.294225 3.21534 5.89435 0.550553 1.42928 -14.9096 0.893009 -0.0 0.0 0.0 -0.0 0.0 0.0 1.00332e-13 3.6419e-13 9.26065e-14 66.7881 18.3861 1.59389 -12.3057 -6.18535 21.5479 -0.000588587 0.77979 0.109598 -5.37682e-10 -6.48626e-12 -2.94405e-09 -9.37692e-10 -1.03705e-11 -5.08982e-09 -5.37681e-10 -6.48564e-12 -2.94405e-09 7.73091 5.47488 0.417314 -5.37693e-10 -6.49191e-12 -2.94403e-09 2.90554 0.965183 0.102902 -5.37678e-10 -6.48385e-12 -2.94405e-09 10.2786 0.731801 0.0259123 -5.37684e-10 -6.48017e-12 -2.94404e-09 2.22167 -0.733487 -0.20892 1.00203e-13 3.6419e-13 9.24077e-14 -66.4261 15.1973 -0.597725 8.18165 -3.32652 -14.2147 0.0255485 -5.1535 0.725764 -1.37219e-09 2.05655e-10 4.46588e-09 -2.38444e-09 3.57975e-10 7.71457e-09 -1.37219e-09 2.05657e-10 4.46588e-09 -7.73091 5.47488 -0.417314 -1.37218e-09 2.05656e-10 4.46589e-09 -2.90554 0.965183 -0.102902 -1.37219e-09 2.05657e-10 4.4659e-09 -10.2786 0.731801 -0.0259123 -1.37218e-09 2.05659e-10 4.4659e-09 -2.22167 -0.733487 0.20892 -2.03217e-16 0.0 -3.88251e-19 0.113756 -10.5952 3.91989 -0.0885812 26.5288 0.623253 -4.6868 -16.3429 -11.3057 2.03217e-16 0.0 3.88251e-19 0.403924 -8.41975 6.76615 -0.0474009 25.3194 -0.458368 5.87365 -17.1555 16.8888
